<?xml version="1.0" ?><!DOCTYPE svg  PUBLIC '-//W3C//DTD SVG 1.1//EN'  'http://www.w3.org/Graphics/SVG/1.1/DTD/svg11.dtd'><svg height="512px" style="enable-background:new 0 0 512 512;" version="1.1" viewBox="0 0 512 512" width="512px" xml:space="preserve" xmlns="http://www.w3.org/2000/svg" xmlns:xlink="http://www.w3.org/1999/xlink"><g id="_x31_32-android"><g><g><g><path d="M77.049,196.193c-16.467,0-29.826,13.397-29.826,29.907V345.72      c0,16.51,13.359,29.905,29.826,29.905c16.463,0,29.826-13.396,29.826-29.905V226.101      C106.875,209.591,93.512,196.193,77.049,196.193L77.049,196.193z M77.049,196.193" style="fill:#9CDB53;"/><path d="M434.949,196.193c-16.463,0-29.822,13.397-29.822,29.907V345.72      c0,16.51,13.359,29.905,29.822,29.905c16.469,0,29.828-13.396,29.828-29.905V226.101      C464.777,209.591,451.418,196.193,434.949,196.193L434.949,196.193z M434.949,196.193" style="fill:#9CDB53;"/><g><path d="M136.698,377.361c0,16.51,13.359,29.905,29.828,29.905v58.078       c0,16.51,13.363,29.905,29.82,29.905c16.467,0,29.826-13.396,29.826-29.905v-58.078h59.648v58.078       c0,16.51,13.365,29.905,29.834,29.905c16.457,0,29.82-13.396,29.82-29.905v-58.078c16.463,0,29.826-13.396,29.826-29.905       V197.928H136.698V377.361z M136.698,377.361" style="fill:#9CDB53;"/><path d="M330.441,73.489l26.545-32.268c5.254-6.371,4.355-15.793-1.996-21.053       c-6.381-5.236-15.746-4.369-21,2.002l-29.016,35.258C290.004,50.641,273.508,46.663,256,46.663       c-17.748,0-34.449,4.125-49.566,11.124l-28.251-35.405c-5.156-6.437-14.521-7.505-20.963-2.335       c-6.412,5.171-7.457,14.563-2.324,21.028l26.185,32.831c-26.875,21.923-44.382,54.936-44.382,92.377h238.603       C375.301,128.604,357.582,95.408,330.441,73.489L330.441,73.489z M226.172,121.427c-8.23,0-14.91-6.697-14.91-14.953       c0-8.253,6.68-14.953,14.91-14.953c8.238,0,14.918,6.699,14.918,14.953C241.09,114.73,234.41,121.427,226.172,121.427       L226.172,121.427z M285.82,121.427c-8.23,0-14.91-6.697-14.91-14.953c0-8.253,6.68-14.953,14.91-14.953       c8.236,0,14.916,6.699,14.916,14.953C300.736,114.73,294.057,121.427,285.82,121.427L285.82,121.427z M285.82,121.427" style="fill:#9CDB53;"/></g></g></g></g></g><g id="Layer_1"/></svg>